<svg width="24" height="24" viewBox="0 0 24 24" fill="none" xmlns="http://www.w3.org/2000/svg">
<path d="M11.998 0.00100005C18.623 0.00100005 23.998 5.376 23.998 12.001C23.998 17.298 20.561 21.798 15.795 23.392C15.186 23.501 14.967 23.126 14.967 22.814C14.967 22.423 14.983 21.127 14.983 19.517C14.983 18.392 14.608 17.673 14.171 17.298C16.843 17.001 19.655 15.985 19.655 11.376C19.655 10.063 19.186 9.001 18.421 8.157C18.546 7.844 18.952 6.626 18.296 4.97C17.296 4.657 14.999 6.204 14.999 6.204C14.046 5.938 13.015 5.798 11.999 5.798C10.983 5.798 9.952 5.939 8.999 6.204C8.999 6.204 6.702 4.657 5.702 4.97C5.046 6.626 5.452 7.845 5.577 8.157C4.811 9.001 4.343 10.063 4.343 11.376C4.343 15.97 7.14 17.001 9.812 17.298C9.468 17.611 9.156 18.142 9.046 18.907C8.358 19.22 6.608 19.751 5.562 17.907C4.906 16.766 3.718 16.673 3.718 16.673C2.546 16.657 3.64 17.407 3.64 17.407C4.421 17.766 4.968 19.157 4.968 19.157C5.671 21.298 9.015 20.579 9.015 20.579C9.015 21.579 9.031 22.516 9.031 22.813C9.031 23.126 8.812 23.501 8.203 23.391C3.437 21.797 0 17.297 0 12C0 5.375 5.375 0 12 0L11.998 0.00100005ZM4.545 17.235C4.576 17.172 4.529 17.094 4.436 17.048C4.342 17.017 4.264 17.032 4.233 17.079C4.202 17.142 4.249 17.22 4.342 17.266C4.42 17.313 4.514 17.297 4.545 17.235ZM5.029 17.767C5.092 17.72 5.076 17.611 4.998 17.517C4.92 17.439 4.811 17.408 4.748 17.47C4.685 17.517 4.701 17.626 4.779 17.72C4.857 17.798 4.966 17.829 5.029 17.767ZM5.498 18.47C5.576 18.407 5.576 18.283 5.498 18.173C5.435 18.064 5.311 18.017 5.232 18.079C5.154 18.126 5.154 18.251 5.232 18.36C5.31 18.469 5.435 18.517 5.498 18.47ZM6.154 19.126C6.217 19.063 6.185 18.923 6.091 18.829C5.982 18.72 5.841 18.704 5.778 18.782C5.7 18.845 5.731 18.985 5.841 19.079C5.95 19.188 6.091 19.204 6.154 19.126ZM7.045 19.517C7.076 19.423 6.982 19.314 6.842 19.267C6.717 19.236 6.576 19.283 6.545 19.376C6.514 19.469 6.608 19.579 6.748 19.61C6.873 19.657 7.014 19.61 7.045 19.516V19.517ZM8.029 19.595C8.029 19.486 7.904 19.408 7.763 19.423C7.622 19.423 7.513 19.501 7.513 19.595C7.513 19.704 7.622 19.782 7.779 19.767C7.92 19.767 8.029 19.689 8.029 19.595ZM8.935 19.439C8.919 19.345 8.794 19.283 8.654 19.298C8.513 19.329 8.42 19.423 8.435 19.532C8.451 19.626 8.576 19.688 8.716 19.657C8.856 19.626 8.95 19.533 8.935 19.439Z" fill="#FDD526"/>
</svg>
