<svg width="45" height="45" viewBox="0 0 45 45" fill="none" xmlns="http://www.w3.org/2000/svg">
<g clip-path="url(#clip0_117_55)">
<path d="M34.4531 0H10.5469C4.722 0 0 4.722 0 10.5469V34.4531C0 40.278 4.722 45 10.5469 45H34.4531C40.278 45 45 40.278 45 34.4531V10.5469C45 4.722 40.278 0 34.4531 0Z" fill="#F0DB4F"/>
<path d="M11.8322 37.6052L15.2758 35.5211C15.9402 36.699 16.5446 37.6957 17.9942 37.6957C19.3838 37.6957 20.2599 37.1522 20.2599 35.0379V20.6594H24.4888V35.0977C24.4888 39.4776 21.9213 41.4713 18.1755 41.4713C14.7925 41.4713 12.8289 39.7193 11.832 37.6048M26.7857 37.152L30.2289 35.1585C31.1354 36.6388 32.3135 37.7261 34.3976 37.7261C36.15 37.7261 37.2672 36.85 37.2672 35.6417C37.2672 34.1919 36.1194 33.6782 34.1861 32.8327L33.1292 32.3794C30.0781 31.0807 28.0542 29.4495 28.0542 26.0059C28.0542 22.8341 30.4708 20.4175 34.2468 20.4175C36.9352 20.4175 38.8684 21.354 40.2578 23.8007L36.9652 25.9152C36.2401 24.6164 35.4551 24.1029 34.2468 24.1029C33.0082 24.1029 32.2228 24.8883 32.2228 25.9152C32.2228 27.1838 33.0082 27.6975 34.8205 28.483L35.8777 28.936C39.4722 30.4767 41.4962 32.0472 41.4962 35.5813C41.4962 39.3876 38.5058 41.4717 34.4883 41.4717C30.5615 41.4717 28.0241 39.5989 26.7857 37.152Z" fill="#323330"/>
</g>
<defs>
<clipPath id="clip0_117_55">
<rect width="45" height="45" fill="white"/>
</clipPath>
</defs>
</svg>
