<svg width="20" height="24" viewBox="0 0 20 24" fill="none" xmlns="http://www.w3.org/2000/svg">
<path d="M20 10C20 7.239 18.88 4.737 17.071 2.929C15.262 1.121 12.761 0 10 0C7.239 0 4.737 1.12 2.929 2.929C1.121 4.738 0 7.239 0 10C0 10.569 0.0530001 11.128 0.15 11.676C0.424 13.224 1.049 14.68 1.832 15.996C4.564 20.587 9.445 23.832 9.445 23.832C9.776 24.049 10.21 24.061 10.554 23.832C10.554 23.832 15.436 20.587 18.167 15.996C18.95 14.68 19.575 13.224 19.849 11.676C19.947 11.128 20 10.569 20 10ZM18 10C18 10.444 17.959 10.887 17.881 11.328C17.66 12.578 17.144 13.806 16.449 14.974C14.537 18.188 11.413 20.721 10.08 21.714C8.682 20.798 5.492 18.237 3.55 14.974C2.855 13.806 2.339 12.578 2.118 11.328C2.041 10.887 2 10.444 2 10C2 7.791 2.894 5.792 4.343 4.343C5.792 2.894 7.791 2 10 2C12.209 2 14.208 2.894 15.657 4.343C17.106 5.792 18 7.791 18 10ZM14 10C14 8.896 13.551 7.894 12.828 7.172C12.105 6.45 11.104 6 10 6C8.896 6 7.894 6.449 7.172 7.172C6.45 7.895 6 8.896 6 10C6 11.104 6.449 12.106 7.172 12.828C7.895 13.55 8.896 14 10 14C11.104 14 12.106 13.551 12.828 12.828C13.55 12.105 14 11.104 14 10ZM12 10C12 10.553 11.777 11.051 11.414 11.414C11.051 11.777 10.553 12 10 12C9.447 12 8.949 11.777 8.586 11.414C8.223 11.051 8 10.553 8 10C8 9.447 8.223 8.949 8.586 8.586C8.949 8.223 9.447 8 10 8C10.553 8 11.051 8.223 11.414 8.586C11.777 8.949 12 9.447 12 10Z" fill="#FDD526"/>
</svg>
