<svg width="22" height="22" viewBox="0 0 22 22" fill="none" xmlns="http://www.w3.org/2000/svg">
<path d="M21.8875 15.9202C21.9035 15.2062 21.6515 14.5162 21.2145 13.9772C20.7545 13.4112 20.0855 13.0102 19.2895 12.8972C18.4895 12.7992 17.5945 12.5832 16.7035 12.2512C16.2705 12.0922 15.8105 12.0332 15.3595 12.0772C14.6965 12.1412 14.0525 12.4262 13.5405 12.9322L12.8205 13.6522C11.0505 12.5352 9.4605 10.9852 8.2375 9.06316L8.9635 8.33716C9.2855 8.00716 9.5265 7.61116 9.6705 7.18116C9.8825 6.54916 9.8845 5.84516 9.6315 5.17016C9.3425 4.41716 9.1135 3.52616 8.9875 2.57516C8.8835 1.86116 8.5315 1.23016 8.0245 0.77116C7.4855 0.28516 6.7685 -0.00784028 5.9975 0.000159723H3.0015C2.9135 0.000159723 2.8195 0.00415969 2.7285 0.0121597C1.9045 0.0871597 1.1865 0.49016 0.695496 1.07816C0.204496 1.66616 -0.0625043 2.44516 0.0124957 3.27716C0.312496 6.35316 1.3775 9.52016 3.2285 12.3792C4.7305 14.7922 6.8765 17.0022 9.5265 18.6852C12.0945 20.3822 15.2105 21.5472 18.6125 21.9162C18.7045 21.9252 18.8035 21.9292 18.9005 21.9292C19.7285 21.9262 20.4785 21.5862 21.0185 21.0422C21.5585 20.4982 21.8915 19.7452 21.8885 18.9212L21.8875 15.9202ZM19.8875 15.9202V18.9202C19.8885 19.2002 19.7785 19.4502 19.5975 19.6322C19.4165 19.8142 19.1685 19.9272 18.8915 19.9282C15.7425 19.5922 12.9305 18.5372 10.6285 17.0162C8.2005 15.4732 6.2695 13.4792 4.9265 11.3222C3.2295 8.70216 2.2715 5.84116 2.0025 3.08416C1.9785 2.81616 2.0665 2.55816 2.2315 2.36016C2.3965 2.16216 2.6345 2.03016 2.9095 2.00516L5.9975 2.00016C6.2685 1.99716 6.5045 2.09416 6.6845 2.25616C6.8545 2.41016 6.9725 2.62216 7.0075 2.86416C7.1495 3.93616 7.4155 4.98116 7.7645 5.88916C7.8455 6.10516 7.8445 6.33616 7.7745 6.54716C7.7255 6.69216 7.6435 6.82816 7.5325 6.94216L6.2705 8.20316C5.9465 8.52716 5.8915 9.01716 6.1085 9.40416C7.6925 12.1892 9.9475 14.3612 12.4895 15.7822C12.8865 16.0042 13.3715 15.9262 13.6845 15.6162L14.9545 14.3462C15.1205 14.1822 15.3315 14.0892 15.5525 14.0672C15.7045 14.0522 15.8625 14.0722 16.0115 14.1272C17.0335 14.5082 18.0815 14.7632 19.0455 14.8812C19.2865 14.9152 19.5075 15.0472 19.6605 15.2362C19.8075 15.4172 19.8915 15.6482 19.8865 15.9182L19.8875 15.9202Z" fill="#FDD526"/>
</svg>
